<?xml version="1.0" encoding="UTF-8"?>
<svg width="142px" height="41px" viewBox="0 0 142 41" version="1.1" xmlns="http://www.w3.org/2000/svg" xmlns:xlink="http://www.w3.org/1999/xlink">
    <!-- Generator: Sketch 60.1 (88133) - https://sketch.com -->
    <title>Logo full</title>
    <desc>Created with Sketch.</desc>
    <g id="Logo-full" stroke="none" stroke-width="1" fill="none" fill-rule="evenodd" transform="translate(0.000000, 1.000000)">
        <g id="Group-4">
            <path d="M76.5134976,13.0967239 C79.129528,13.0967239 81.2055829,14.025156 82.5938118,15.4000737 L82.7709723,15.5819033 L82.7709723,13.5179407 L88.5244893,13.5179407 L88.5244893,34.5787832 L82.7709723,34.5787832 L82.7709723,32.2199688 C81.3850887,33.8627145 79.1592755,35 76.4295047,35 C71.9778784,35 66.3083544,31.4617785 66.3083544,24.0483619 C66.3083544,16.5928237 71.767896,13.0967239 76.5134976,13.0967239 Z M102.877951,13.0967239 C107.665549,13.0967239 111.361239,15.8346334 112.999101,19.7519501 C113.257532,20.4941157 113.419133,21.0433883 113.483907,21.3997679 L113.483907,21.3997679 L107.620719,21.3994866 C106.711249,19.7131539 104.936213,18.5725429 102.919947,18.5725429 C99.8962013,18.5725429 97.5443987,21.0156006 97.5443987,24.0483619 C97.5443987,27.0811232 99.8962013,29.524181 102.919947,29.524181 C104.948622,29.524181 106.73309,28.3694861 107.637414,26.6660379 L107.637414,26.6660379 L113.485051,26.666403 C113.419112,27.0230353 113.257129,27.5824923 112.999101,28.3447738 C111.361239,32.2620905 107.665549,35 102.877951,35 C96.8304587,35 92.0008641,30.1138846 92.0008641,24.0483619 C92.0008641,17.9828393 96.8304587,13.0967239 102.877951,13.0967239 Z M122.991151,5 L122.991,20.998 L129.551934,13.5179407 L136.229373,13.5179407 L128.148,22.455 L135.871626,34.5787832 L129.572154,34.5787832 L124.435,26.646 L122.991,28.277 L122.991151,34.5787832 L117.237634,34.5787832 L117.237634,5 L122.991151,5 Z M57.753517,7.18321592 L57.753517,13.5155092 L62.8677543,13.5155092 L62.8677543,19.2814999 L57.753517,19.2814999 L57.753856,25.5506396 C57.7668064,28.4562448 58.1626052,29.0949621 60.9601643,29.1753271 C61.1373552,29.1804172 62.0144585,29.1832675 62.5300221,29.1843119 L62.8677543,29.184776 L62.8677543,34.5763516 L60.8612561,34.5763516 C54.1838167,34.5763516 52,32.3017807 52,25.435946 L52,25.435946 L52,7.18321592 L57.753517,7.18321592 Z M77.5634095,18.3619345 C74.3716774,18.3619345 71.9358819,20.7628705 71.9358819,24.0062402 C71.9358819,27.24961 74.3716774,29.6926677 77.5634095,29.6926677 C80.6711486,29.6926677 82.9389582,27.1232449 82.9389582,24.0062402 C82.9389582,20.8892356 80.6711486,18.3619345 77.5634095,18.3619345 Z M138.522608,11.0452418 L138.522608,9.13149403 L139.21523,9.13149403 L139.21523,8.70514821 L137.333725,8.70514821 L137.333725,9.13149403 L138.026347,9.13149403 L138.026347,11.0452418 L138.522608,11.0452418 Z M139.943554,11.0452418 L139.943554,9.43282115 L140.718292,10.9602932 L141.50374,9.42320433 L141.50374,11.0452418 L142,11.0452418 L142,8.70514821 L141.349359,8.70514821 L140.723647,9.89824387 L140.094108,8.70514821 L139.447294,8.70514821 L139.447294,11.0452418 L139.943554,11.0452418 Z" id="Combined-Shape" fill="#252729"></path>
            <path d="M29.0915195,0 C35.116444,-2.88311752e-15 40.0006104,4.88416637 40.0006104,10.9090909 L40.0006104,18.7 L30.39,18.699 L30.3902208,14.025974 C30.3902208,11.6590394 28.5278758,9.72707871 26.1885754,9.61548149 L25.9746364,9.61038961 L21.3,9.61 L21.3006104,0 L29.0915195,0 Z" id="Combined-Shape" fill="#65D491"></path>
            <path d="M7.79251948,0 C13.817444,-1.10676068e-15 18.7016104,4.88416637 18.7016104,10.9090909 L18.7016104,18.7 L9.091,18.699 L9.09122078,14.025974 C9.09122078,11.6590394 7.22887583,9.72707871 4.88957541,9.61548149 L4.67563636,9.61038961 L1.13686838e-13,9.61 L0.001,0 L7.79251948,0 Z" id="Combined-Shape-Copy-6" fill="#EA4B7E" transform="translate(9.350805, 9.350000) scale(-1, 1) translate(-9.350805, -9.350000) "></path>
            <path d="M29.0915195,21.3 C35.116444,21.3 40.0006104,26.1841664 40.0006104,32.2090909 L40.0006104,40 L30.39,39.999 L30.3902208,35.325974 C30.3902208,32.9590394 28.5278758,31.0270787 26.1885754,30.9154815 L25.9746364,30.9103896 L21.3,30.91 L21.3006104,21.3 L29.0915195,21.3 Z" id="Combined-Shape-Copy-8" fill="#FCCF57" transform="translate(30.650305, 30.650000) scale(1, -1) translate(-30.650305, -30.650000) "></path>
            <path d="M7.79251948,21.3 C13.817444,21.3 18.7016104,26.1841664 18.7016104,32.2090909 L18.7016104,40 L9.091,39.999 L9.09122078,35.325974 C9.09122078,32.9590394 7.22887583,31.0270787 4.88957541,30.9154815 L4.67563636,30.9103896 L1.13686838e-13,30.91 L0.001,21.3 L7.79251948,21.3 Z" id="Combined-Shape-Copy-7" fill="#4E88F8" transform="translate(9.350805, 30.650000) scale(-1, -1) translate(-9.350805, -30.650000) "></path>
        </g>
    </g>
</svg>